<svg version="1.1" viewBox="0.0 0.0 275.63254593175856 223.08923884514437" fill="none" stroke="none" stroke-linecap="square" stroke-miterlimit="10" xmlns:xlink="http://www.w3.org/1999/xlink" xmlns="http://www.w3.org/2000/svg"><clipPath id="p.0"><path d="m0 0l275.63254 0l0 223.08923l-275.63254 0l0 -223.08923z" clip-rule="nonzero"/></clipPath><g clip-path="url(#p.0)"><path fill="#000000" fill-opacity="0.0" d="m0 0l275.63254 0l0 223.08923l-275.63254 0z" fill-rule="evenodd"/><path fill="#b80c0c" d="m18.367226 180.0156l0 0c-14.188143 -44.97725 2.3697128 -95.971725 40.5192 -124.790054c38.149487 -28.818327 88.57439 -28.422983 123.396225 0.9674568c34.821823 29.390442 45.536987 80.59875 26.22136 125.3133z" fill-rule="evenodd"/><path stroke="#000000" stroke-width="1.0" stroke-linejoin="round" stroke-linecap="butt" d="m18.367226 180.0156l0 0c-14.188143 -44.97725 2.3697128 -95.971725 40.5192 -124.790054c38.149487 -28.818327 88.57439 -28.422983 123.396225 0.9674568c34.821823 29.390442 45.536987 80.59875 26.22136 125.3133z" fill-rule="evenodd"/><path fill="#000000" d="m164.79527 115.18635l0 0c0 -29.014511 24.247131 -52.53543 54.157486 -52.53543l0 0c14.363449 0 28.138626 5.5349655 38.295105 15.387276c10.156525 9.852303 15.862366 23.214897 15.862366 37.148155l0 0c0 29.014519 -24.247116 52.53544 -54.15747 52.53544l0 0c-29.910355 0 -54.157486 -23.52092 -54.157486 -52.53544z" fill-rule="evenodd"/><path stroke="#000000" stroke-width="1.0" stroke-linejoin="round" stroke-linecap="butt" d="m164.79527 115.18635l0 0c0 -29.014511 24.247131 -52.53543 54.157486 -52.53543l0 0c14.363449 0 28.138626 5.5349655 38.295105 15.387276c10.156525 9.852303 15.862366 23.214897 15.862366 37.148155l0 0c0 29.014519 -24.247116 52.53544 -54.15747 52.53544l0 0c-29.910355 0 -54.157486 -23.52092 -54.157486 -52.53544z" fill-rule="evenodd"/><path fill="#ffffff" d="m229.3307 115.18635l0 0c0 -10.584732 9.8003845 -19.165352 21.88977 -19.165352l0 0c12.089371 0 21.889755 8.58062 21.889755 19.165352l0 0c0 10.58474 -9.8003845 19.165352 -21.889755 19.165352l0 0c-12.089386 0 -21.88977 -8.580612 -21.88977 -19.165352z" fill-rule="evenodd"/><path stroke="#000000" stroke-width="1.0" stroke-linejoin="round" stroke-linecap="butt" d="m229.3307 115.18635l0 0c0 -10.584732 9.8003845 -19.165352 21.88977 -19.165352l0 0c12.089371 0 21.889755 8.58062 21.889755 19.165352l0 0c0 10.58474 -9.8003845 19.165352 -21.889755 19.165352l0 0c-12.089386 0 -21.88977 -8.580612 -21.88977 -19.165352z" fill-rule="evenodd"/><path fill="#ffffff" d="m192.1181 112.4462l0 0c0 -12.0980835 9.8003845 -21.905518 21.88977 -21.905518l0 0c5.8055267 0 11.373276 2.3078995 15.478394 6.4159775c4.105133 4.108078 6.411377 9.679832 6.411377 15.48954l0 0c0 12.098076 -9.8003845 21.905502 -21.88977 21.905502l0 0c-12.089386 0 -21.88977 -9.807426 -21.88977 -21.905502z" fill-rule="evenodd"/><path stroke="#000000" stroke-width="1.0" stroke-linejoin="round" stroke-linecap="butt" d="m192.1181 112.4462l0 0c0 -12.0980835 9.8003845 -21.905518 21.88977 -21.905518l0 0c5.8055267 0 11.373276 2.3078995 15.478394 6.4159775c4.105133 4.108078 6.411377 9.679832 6.411377 15.48954l0 0c0 12.098076 -9.8003845 21.905502 -21.88977 21.905502l0 0c-12.089386 0 -21.88977 -9.807426 -21.88977 -21.905502z" fill-rule="evenodd"/><path fill="#666666" d="m216.64568 130.51706l0 0c0 -5.1401596 6.0353394 -9.307083 13.480316 -9.307083l0 0c7.4449615 0 13.480301 4.1669235 13.480301 9.307083l0 0c0 5.140167 -6.0353394 9.307083 -13.480301 9.307083l0 0c-7.444977 0 -13.480316 -4.166916 -13.480316 -9.307083z" fill-rule="evenodd"/><path stroke="#000000" stroke-width="1.0" stroke-linejoin="round" stroke-linecap="butt" d="m216.64568 130.51706l0 0c0 -5.1401596 6.0353394 -9.307083 13.480316 -9.307083l0 0c7.4449615 0 13.480301 4.1669235 13.480301 9.307083l0 0c0 5.140167 -6.0353394 9.307083 -13.480301 9.307083l0 0c-7.444977 0 -13.480316 -4.166916 -13.480316 -9.307083z" fill-rule="evenodd"/><path fill="#000000" fill-opacity="0.0" d="m44.790028 179.44882l-4.8188972 31.527557" fill-rule="evenodd"/><path stroke="#000000" stroke-width="4.0" stroke-linejoin="round" stroke-linecap="butt" d="m44.790028 179.44882l-4.8188972 31.527557" fill-rule="evenodd"/><path fill="#000000" fill-opacity="0.0" d="m70.62992 180.021l1.7637787 33.133865" fill-rule="evenodd"/><path stroke="#000000" stroke-width="4.0" stroke-linejoin="round" stroke-linecap="butt" d="m70.62992 180.021l1.7637787 33.133865" fill-rule="evenodd"/><path fill="#000000" fill-opacity="0.0" d="m160.2126 181.45407l-14.992126 30.267715" fill-rule="evenodd"/><path stroke="#000000" stroke-width="4.0" stroke-linejoin="round" stroke-linecap="butt" d="m160.2126 181.45407l-14.992126 30.267715" fill-rule="evenodd"/><path fill="#000000" fill-opacity="0.0" d="m178.87401 181.4567l-0.47242737 32.7874" fill-rule="evenodd"/><path stroke="#000000" stroke-width="4.0" stroke-linejoin="round" stroke-linecap="butt" d="m178.87401 181.4567l-0.47242737 32.7874" fill-rule="evenodd"/><path fill="#000000" d="m22.448818 143.65355l0 0c0 -5.140167 3.9201527 -9.307098 8.755907 -9.307098l0 0c2.3222103 0 4.549307 0.98057556 6.1913586 2.7259827c1.6420517 1.7454224 2.5645447 4.1127167 2.5645447 6.5811157l0 0c0 5.140152 -3.9201508 9.307083 -8.755903 9.307083l0 0c-4.8357544 0 -8.755907 -4.166931 -8.755907 -9.307083z" fill-rule="evenodd"/><path stroke="#000000" stroke-width="1.0" stroke-linejoin="round" stroke-linecap="butt" d="m22.448818 143.65355l0 0c0 -5.140167 3.9201527 -9.307098 8.755907 -9.307098l0 0c2.3222103 0 4.549307 0.98057556 6.1913586 2.7259827c1.6420517 1.7454224 2.5645447 4.1127167 2.5645447 6.5811157l0 0c0 5.140152 -3.9201508 9.307083 -8.755903 9.307083l0 0c-4.8357544 0 -8.755907 -4.166931 -8.755907 -9.307083z" fill-rule="evenodd"/><path fill="#000000" d="m61.866142 122.30446l0 0c0 -10.584732 9.800377 -19.165352 21.889763 -19.165352l0 0c12.089386 0 21.889763 8.58062 21.889763 19.165352l0 0c0 10.584732 -9.800377 19.16536 -21.889763 19.16536l0 0c-12.089386 0 -21.889763 -8.580627 -21.889763 -19.16536z" fill-rule="evenodd"/><path stroke="#000000" stroke-width="1.0" stroke-linejoin="round" stroke-linecap="butt" d="m61.866142 122.30446l0 0c0 -10.584732 9.800377 -19.165352 21.889763 -19.165352l0 0c12.089386 0 21.889763 8.58062 21.889763 19.165352l0 0c0 10.584732 -9.800377 19.16536 -21.889763 19.16536l0 0c-12.089386 0 -21.889763 -8.580627 -21.889763 -19.16536z" fill-rule="evenodd"/><path fill="#000000" d="m128.60892 167.19685l0 0c0 -7.8624573 7.8473663 -14.236221 17.527573 -14.236221l0 0c9.680191 0 17.527557 6.373764 17.527557 14.236221l0 0c0 7.862442 -7.8473663 14.236221 -17.527557 14.236221l0 0c-9.680206 0 -17.527573 -6.3737793 -17.527573 -14.236221z" fill-rule="evenodd"/><path stroke="#000000" stroke-width="1.0" stroke-linejoin="round" stroke-linecap="butt" d="m128.60892 167.19685l0 0c0 -7.8624573 7.8473663 -14.236221 17.527573 -14.236221l0 0c9.680191 0 17.527557 6.373764 17.527557 14.236221l0 0c0 7.862442 -7.8473663 14.236221 -17.527557 14.236221l0 0c-9.680206 0 -17.527573 -6.3737793 -17.527573 -14.236221z" fill-rule="evenodd"/><path fill="#000000" d="m117.07087 58.406826l0 0c0 -7.8624496 7.847351 -14.236221 17.52755 -14.236221l0 0c9.680206 0 17.527573 6.3737717 17.527573 14.236221l0 0c0 7.862446 -7.8473663 14.2362175 -17.527573 14.2362175l0 0c-9.680199 0 -17.52755 -6.3737717 -17.52755 -14.2362175z" fill-rule="evenodd"/><path stroke="#000000" stroke-width="1.0" stroke-linejoin="round" stroke-linecap="butt" d="m117.07087 58.406826l0 0c0 -7.8624496 7.847351 -14.236221 17.52755 -14.236221l0 0c9.680206 0 17.527573 6.3737717 17.527573 14.236221l0 0c0 7.862446 -7.8473663 14.2362175 -17.527573 14.2362175l0 0c-9.680199 0 -17.52755 -6.3737717 -17.52755 -14.2362175z" fill-rule="evenodd"/><path fill="#000000" d="m203.04724 112.4462l0 0c0 -5.140167 4.907242 -9.307091 10.960632 -9.307091l0 0c6.0533905 0 10.960632 4.1669235 10.960632 9.307091l0 0c0 5.1401596 -4.907242 9.307083 -10.960632 9.307083l0 0c-6.0533905 0 -10.960632 -4.1669235 -10.960632 -9.307083z" fill-rule="evenodd"/><path stroke="#000000" stroke-width="1.0" stroke-linejoin="round" stroke-linecap="butt" d="m203.04724 112.4462l0 0c0 -5.140167 4.907242 -9.307091 10.960632 -9.307091l0 0c6.0533905 0 10.960632 4.1669235 10.960632 9.307091l0 0c0 5.1401596 -4.907242 9.307083 -10.960632 9.307083l0 0c-6.0533905 0 -10.960632 -4.1669235 -10.960632 -9.307083z" fill-rule="evenodd"/><path fill="#000000" d="m240.25984 115.18635l0 0c0 -5.1401596 4.907242 -9.307083 10.960632 -9.307083l0 0c6.0533905 0 10.960617 4.1669235 10.960617 9.307083l0 0c0 5.140167 -4.9072266 9.307091 -10.960617 9.307091l0 0c-6.0533905 0 -10.960632 -4.1669235 -10.960632 -9.307091z" fill-rule="evenodd"/><path stroke="#000000" stroke-width="1.0" stroke-linejoin="round" stroke-linecap="butt" d="m240.25984 115.18635l0 0c0 -5.1401596 4.907242 -9.307083 10.960632 -9.307083l0 0c6.0533905 0 10.960617 4.1669235 10.960617 9.307083l0 0c0 5.140167 -4.9072266 9.307091 -10.960617 9.307091l0 0c-6.0533905 0 -10.960632 -4.1669235 -10.960632 -9.307091z" fill-rule="evenodd"/><path fill="#000000" fill-opacity="0.0" d="m204.89502 64.96238c0.73228455 -6.407261 0.36613464 -30.2056 4.393692 -38.44357c4.0275574 -8.23797 15.01181 -11.899387 19.771652 -10.984252c4.759842 0.9151354 8.604111 11.898513 8.787399 16.475067c0.18328857 4.5765533 -4.5756683 9.519684 -7.6876526 10.984253c-3.1119843 1.4645653 -9.153549 -1.8307114 -10.984253 -2.1968536" fill-rule="evenodd"/><path stroke="#000000" stroke-width="4.0" stroke-linejoin="round" stroke-linecap="butt" d="m204.89502 64.96238c0.73228455 -6.407261 0.36613464 -30.2056 4.393692 -38.44357c4.0275574 -8.23797 15.01181 -11.899387 19.771652 -10.984252c4.759842 0.9151354 8.604111 11.898513 8.787399 16.475067c0.18328857 4.5765533 -4.5756683 9.519684 -7.6876526 10.984253c-3.1119843 1.4645653 -9.153549 -1.8307114 -10.984253 -2.1968536" fill-rule="evenodd"/><path fill="#000000" fill-opacity="0.0" d="m242.69817 72.64048c0.59747314 -5.6268616 0.29873657 -26.526558 3.5848236 -33.761147c3.2860718 -7.234583 12.248138 -10.450041 16.131683 -9.646368c3.883545 0.8036709 7.020111 10.449274 7.169647 14.468401c0.14953613 4.0191307 -3.733307 8.360188 -6.2723694 9.64637c-2.5390625 1.2861824 -7.4683685 -1.607727 -8.962051 -1.9292717" fill-rule="evenodd"/><path stroke="#000000" stroke-width="4.0" stroke-linejoin="round" stroke-linecap="butt" d="m242.69817 72.64048c0.59747314 -5.6268616 0.29873657 -26.526558 3.5848236 -33.761147c3.2860718 -7.234583 12.248138 -10.450041 16.131683 -9.646368c3.883545 0.8036709 7.020111 10.449274 7.169647 14.468401c0.14953613 4.0191307 -3.733307 8.360188 -6.2723694 9.64637c-2.5390625 1.2861824 -7.4683685 -1.607727 -8.962051 -1.9292717" fill-rule="evenodd"/><path fill="#000000" fill-opacity="0.0" d="m235.6181 153.14174c-1.8307037 0.18328857 -9.153534 0.9164429 -10.984238 1.0997314" fill-rule="evenodd"/><path stroke="#000000" stroke-width="1.0" stroke-linejoin="round" stroke-linecap="butt" d="m235.6181 153.14174c-1.8307037 0.18328857 -9.153534 0.9164429 -10.984238 1.0997314" fill-rule="evenodd"/><path fill="#000000" fill-opacity="0.0" d="m235.69685 142.63649c-2.1968536 1.2817078 -8.421265 7.690277 -13.181107 7.690277c-4.759842 0 -12.814957 -6.4085693 -15.377945 -7.690277" fill-rule="evenodd"/><path stroke="#ffffff" stroke-width="4.0" stroke-linejoin="round" stroke-linecap="butt" d="m235.69685 142.63649c-2.1968536 1.2817078 -8.421265 7.690277 -13.181107 7.690277c-4.759842 0 -12.814957 -6.4085693 -15.377945 -7.690277" fill-rule="evenodd"/></g></svg>