<?xml version="1.0" standalone="no"?>
<!DOCTYPE svg PUBLIC "-//W3C//DTD SVG 1.0//EN" "http://www.w3.org/TR/2001/REC-SVG-20010904/DTD/svg10.dtd">
<svg xmlns="http://www.w3.org/2000/svg" xmlns:xlink="http://www.w3.org/1999/xlink" id="body_1" width="102" height="77">

<defs>
        <clipPath  id="1">

            <path clip-rule="evenodd" d="M0 0L275.63254 0L275.63254 223.08923L0 223.08923L0 0z" />        </clipPath>
</defs>

<g transform="matrix(0.3451534 0 0 0.3451534 3.4322524 -0)">
	<g clip-path="url(#1)" >
        <path d="M0 0L275.63254 0L275.63254 223.08923L0 223.08923L0 0z" stroke="none" fill="none" />
        <path d="M18.367226 180.0156C 4.179083 135.03835 20.736938 84.04387 58.886425 55.22554C 97.03591 26.407213 147.46082 26.802557 182.28265 56.192997C 217.10448 85.583435 227.81964 136.79175 208.50401 181.5063L208.50401 181.5063L18.367226 180.0156z" stroke="none" fill="#B80C0C" fill-rule="nonzero" />
        <path d="M18.367226 180.0156C 4.179083 135.03835 20.736938 84.04387 58.886425 55.22554C 97.03591 26.407213 147.46082 26.802557 182.28265 56.192997C 217.10448 85.583435 227.81964 136.79175 208.50401 181.5063L208.50401 181.5063L18.367226 180.0156z" stroke="#000000" stroke-width="1" fill="none" />
        <path d="M164.79527 115.18635C 164.79527 86.17184 189.0424 62.650917 218.95276 62.650917C 233.31621 62.650917 247.09138 68.18588 257.24786 78.03819C 267.4044 87.890495 273.11023 101.25309 273.11023 115.18635C 273.11023 144.20087 248.86311 167.72179 218.95276 167.72179C 189.0424 167.72179 164.79527 144.20087 164.79527 115.18635z" stroke="none" fill="#000000" fill-rule="nonzero" />
        <path d="M164.79527 115.18635C 164.79527 86.17184 189.0424 62.650917 218.95276 62.650917C 233.31621 62.650917 247.09138 68.18588 257.24786 78.03819C 267.4044 87.890495 273.11023 101.25309 273.11023 115.18635C 273.11023 144.20087 248.86311 167.72179 218.95276 167.72179C 189.0424 167.72179 164.79527 144.20087 164.79527 115.18635z" stroke="#000000" stroke-width="1" fill="none" />
        <path d="M229.3307 115.18635C 229.3307 104.601616 239.13109 96.020996 251.22047 96.020996C 263.30984 96.020996 273.11023 104.601616 273.11023 115.18635C 273.11023 125.77109 263.30984 134.3517 251.22047 134.3517C 239.13109 134.3517 229.3307 125.77109 229.3307 115.18635z" stroke="none" fill="#FFFFFF" fill-rule="nonzero" />
        <path d="M229.3307 115.18635C 229.3307 104.601616 239.13109 96.020996 251.22047 96.020996C 263.30984 96.020996 273.11023 104.601616 273.11023 115.18635C 273.11023 125.77109 263.30984 134.3517 251.22047 134.3517C 239.13109 134.3517 229.3307 125.77109 229.3307 115.18635z" stroke="#000000" stroke-width="1" fill="none" />
        <path d="M192.1181 112.4462C 192.1181 100.348114 201.91849 90.54068 214.00787 90.54068C 219.8134 90.54068 225.38115 92.84858 229.48627 96.95666C 233.5914 101.064735 235.89764 106.63649 235.89764 112.4462C 235.89764 124.54427 226.09726 134.3517 214.00787 134.3517C 201.91849 134.3517 192.1181 124.54427 192.1181 112.4462z" stroke="none" fill="#FFFFFF" fill-rule="nonzero" />
        <path d="M192.1181 112.4462C 192.1181 100.348114 201.91849 90.54068 214.00787 90.54068C 219.8134 90.54068 225.38115 92.84858 229.48627 96.95666C 233.5914 101.064735 235.89764 106.63649 235.89764 112.4462C 235.89764 124.54427 226.09726 134.3517 214.00787 134.3517C 201.91849 134.3517 192.1181 124.54427 192.1181 112.4462z" stroke="#000000" stroke-width="1" fill="none" />
        <path d="M216.64568 130.51706C 216.64568 125.3769 222.68102 121.20998 230.12599 121.20998C 237.57095 121.20998 243.6063 125.3769 243.6063 130.51706C 243.6063 135.65723 237.57095 139.82414 230.12599 139.82414C 222.68102 139.82414 216.64568 135.65723 216.64568 130.51706z" stroke="none" fill="#666666" fill-rule="nonzero" />
        <path d="M216.64568 130.51706C 216.64568 125.3769 222.68102 121.20998 230.12599 121.20998C 237.57095 121.20998 243.6063 125.3769 243.6063 130.51706C 243.6063 135.65723 237.57095 139.82414 230.12599 139.82414C 222.68102 139.82414 216.64568 135.65723 216.64568 130.51706z" stroke="#000000" stroke-width="1" fill="none" />
        <path d="M44.790028 179.44882L39.97113 210.97638" stroke="none" fill="none" />
        <path d="M44.790028 179.44882L39.97113 210.97638" stroke="#000000" stroke-width="4" fill="none" />
        <path d="M70.62992 180.021L72.3937 213.15486" stroke="none" fill="none" />
        <path d="M70.62992 180.021L72.3937 213.15486" stroke="#000000" stroke-width="4" fill="none" />
        <path d="M160.2126 181.45407L145.22047 211.72179" stroke="none" fill="none" />
        <path d="M160.2126 181.45407L145.22047 211.72179" stroke="#000000" stroke-width="4" fill="none" />
        <path d="M178.87401 181.4567L178.40158 214.2441" stroke="none" fill="none" />
        <path d="M178.87401 181.4567L178.40158 214.2441" stroke="#000000" stroke-width="4" fill="none" />
        <path d="M22.448818 143.65355C 22.448818 138.51338 26.36897 134.34645 31.204725 134.34645C 33.526936 134.34645 35.754032 135.32703 37.396084 137.07243C 39.038136 138.81786 39.96063 141.18515 39.96063 143.65355C 39.96063 148.7937 36.040478 152.96063 31.204725 152.96063C 26.36897 152.96063 22.448818 148.7937 22.448818 143.65355z" stroke="none" fill="#000000" fill-rule="nonzero" />
        <path d="M22.448818 143.65355C 22.448818 138.51338 26.36897 134.34645 31.204725 134.34645C 33.526936 134.34645 35.754032 135.32703 37.396084 137.07243C 39.038136 138.81786 39.96063 141.18515 39.96063 143.65355C 39.96063 148.7937 36.040478 152.96063 31.204725 152.96063C 26.36897 152.96063 22.448818 148.7937 22.448818 143.65355z" stroke="#000000" stroke-width="1" fill="none" />
        <path d="M61.866142 122.30446C 61.866142 111.71973 71.66652 103.13911 83.755905 103.13911C 95.84529 103.13911 105.64567 111.71973 105.64567 122.30446C 105.64567 132.88919 95.84529 141.46982 83.755905 141.46982C 71.66652 141.46982 61.866142 132.88919 61.866142 122.30446z" stroke="none" fill="#000000" fill-rule="nonzero" />
        <path d="M61.866142 122.30446C 61.866142 111.71973 71.66652 103.13911 83.755905 103.13911C 95.84529 103.13911 105.64567 111.71973 105.64567 122.30446C 105.64567 132.88919 95.84529 141.46982 83.755905 141.46982C 71.66652 141.46982 61.866142 132.88919 61.866142 122.30446z" stroke="#000000" stroke-width="1" fill="none" />
        <path d="M128.60892 167.19685C 128.60892 159.3344 136.45628 152.96063 146.13649 152.96063C 155.81668 152.96063 163.66405 159.3344 163.66405 167.19685C 163.66405 175.0593 155.81668 181.43307 146.13649 181.43307C 136.45628 181.43307 128.60892 175.0593 128.60892 167.19685z" stroke="none" fill="#000000" fill-rule="nonzero" />
        <path d="M128.60892 167.19685C 128.60892 159.3344 136.45628 152.96063 146.13649 152.96063C 155.81668 152.96063 163.66405 159.3344 163.66405 167.19685C 163.66405 175.0593 155.81668 181.43307 146.13649 181.43307C 136.45628 181.43307 128.60892 175.0593 128.60892 167.19685z" stroke="#000000" stroke-width="1" fill="none" />
        <path d="M117.07087 58.406826C 117.07087 50.544376 124.91822 44.170605 134.59842 44.170605C 144.27863 44.170605 152.12599 50.544376 152.12599 58.406826C 152.12599 66.26927 144.27863 72.64304 134.59842 72.64304C 124.91822 72.64304 117.07087 66.26927 117.07087 58.406826z" stroke="none" fill="#000000" fill-rule="nonzero" />
        <path d="M117.07087 58.406826C 117.07087 50.544376 124.91822 44.170605 134.59842 44.170605C 144.27863 44.170605 152.12599 50.544376 152.12599 58.406826C 152.12599 66.26927 144.27863 72.64304 134.59842 72.64304C 124.91822 72.64304 117.07087 66.26927 117.07087 58.406826z" stroke="#000000" stroke-width="1" fill="none" />
        <path d="M203.04724 112.4462C 203.04724 107.30603 207.95448 103.13911 214.00787 103.13911C 220.06126 103.13911 224.9685 107.30603 224.9685 112.4462C 224.9685 117.58636 220.06126 121.75328 214.00787 121.75328C 207.95448 121.75328 203.04724 117.58636 203.04724 112.4462z" stroke="none" fill="#000000" fill-rule="nonzero" />
        <path d="M203.04724 112.4462C 203.04724 107.30603 207.95448 103.13911 214.00787 103.13911C 220.06126 103.13911 224.9685 107.30603 224.9685 112.4462C 224.9685 117.58636 220.06126 121.75328 214.00787 121.75328C 207.95448 121.75328 203.04724 117.58636 203.04724 112.4462z" stroke="#000000" stroke-width="1" fill="none" />
        <path d="M240.25984 115.18635C 240.25984 110.04619 245.16708 105.879265 251.22047 105.879265C 257.27386 105.879265 262.1811 110.04619 262.1811 115.18635C 262.1811 120.326515 257.27386 124.49344 251.22047 124.49344C 245.16708 124.49344 240.25984 120.326515 240.25984 115.18635z" stroke="none" fill="#000000" fill-rule="nonzero" />
        <path d="M240.25984 115.18635C 240.25984 110.04619 245.16708 105.879265 251.22047 105.879265C 257.27386 105.879265 262.1811 110.04619 262.1811 115.18635C 262.1811 120.326515 257.27386 124.49344 251.22047 124.49344C 245.16708 124.49344 240.25984 120.326515 240.25984 115.18635z" stroke="#000000" stroke-width="1" fill="none" />
        <path d="M204.89502 64.96238C 205.6273 58.55512 205.26115 34.75678 209.28871 26.51881C 213.31627 18.28084 224.30052 14.619423 229.06036 15.534558C 233.8202 16.449694 237.66447 27.433071 237.84776 32.009624C 238.03105 36.586178 233.2721 41.52931 230.16011 42.993877C 227.04813 44.458443 221.00656 41.163166 219.17586 40.797024" stroke="none" fill="none" />
        <path d="M204.89502 64.96238C 205.6273 58.55512 205.26115 34.75678 209.28871 26.51881C 213.31627 18.28084 224.30052 14.619423 229.06036 15.534558C 233.8202 16.449694 237.66447 27.433071 237.84776 32.009624C 238.03105 36.586178 233.2721 41.52931 230.16011 42.993877C 227.04813 44.458443 221.00656 41.163166 219.17586 40.797024" stroke="#000000" stroke-width="4" fill="none" />
        <path d="M242.69817 72.64048C 243.29564 67.01362 242.9969 46.113922 246.28299 38.879333C 249.56906 31.64475 258.53113 28.429293 262.41467 29.232965C 266.29822 30.036636 269.43478 39.68224 269.58432 43.701366C 269.73386 47.720497 265.851 52.061554 263.31195 53.347736C 260.7729 54.63392 255.84358 51.74001 254.3499 51.418465" stroke="none" fill="none" />
        <path d="M242.69817 72.64048C 243.29564 67.01362 242.9969 46.113922 246.28299 38.879333C 249.56906 31.64475 258.53113 28.429293 262.41467 29.232965C 266.29822 30.036636 269.43478 39.68224 269.58432 43.701366C 269.73386 47.720497 265.851 52.061554 263.31195 53.347736C 260.7729 54.63392 255.84358 51.74001 254.3499 51.418465" stroke="#000000" stroke-width="4" fill="none" />
        <path d="M235.6181 153.14174C 233.7874 153.32503 226.46457 154.05818 224.63387 154.24147" stroke="none" fill="none" />
        <path d="M235.6181 153.14174C 233.7874 153.32503 226.46457 154.05818 224.63387 154.24147" stroke="#000000" stroke-width="1" fill="none" />
        <path d="M235.69685 142.63649C 233.5 143.9182 227.27559 150.32677 222.51575 150.32677C 217.7559 150.32677 209.70079 143.9182 207.1378 142.63649" stroke="none" fill="none" />
        <path d="M235.69685 142.63649C 233.5 143.9182 227.27559 150.32677 222.51575 150.32677C 217.7559 150.32677 209.70079 143.9182 207.1378 142.63649" stroke="#FFFFFF" stroke-width="4" fill="none" />
	</g>
</g>
</svg>